<svg width="630" height="380" viewBox="0 0 630 380" fill="none" xmlns="http://www.w3.org/2000/svg">
<path d="M122.92 266.74L117.11 265.24L118.28 260.7C118.502 259.848 118.525 258.957 118.349 258.095C118.172 257.233 117.8 256.423 117.261 255.728C116.722 255.032 116.03 254.47 115.239 254.083C114.449 253.697 113.58 253.498 112.7 253.5H79.76C78.88 253.498 78.0112 253.697 77.2205 254.083C76.4298 254.47 75.7383 255.032 75.1993 255.728C74.6602 256.423 74.288 257.233 74.1113 258.095C73.9346 258.957 73.9581 259.848 74.18 260.7L75.35 265.24L69.54 266.74L68.37 262.2C67.9212 260.462 67.8763 258.644 68.2387 256.886C68.601 255.128 69.3611 253.476 70.4605 252.057C71.56 250.638 72.9697 249.49 74.5816 248.7C76.1936 247.91 77.9649 247.499 79.76 247.5H112.7C114.495 247.499 116.266 247.91 117.878 248.7C119.49 249.49 120.9 250.638 121.999 252.057C123.099 253.476 123.859 255.128 124.221 256.886C124.584 258.644 124.539 260.462 124.09 262.2L122.92 266.74Z" fill="black"/>
<path d="M169 277.93C166.887 276.058 165.058 273.889 163.57 271.49C162.4 269.49 161.29 267.7 161.29 267.7C160.328 266.253 159.023 265.067 157.491 264.246C155.959 263.426 154.248 262.998 152.51 263H40C38.2623 262.998 36.5512 263.426 35.0193 264.246C33.4873 265.067 32.1821 266.253 31.22 267.7C31.22 267.7 30.11 269.49 28.94 271.49C27.4523 273.889 25.6231 276.058 23.51 277.93C22.9925 278.408 22.5796 278.988 22.2973 279.633C22.015 280.279 21.8696 280.976 21.87 281.68V286.2C21.87 286.568 21.9424 286.932 22.0831 287.272C22.2238 287.611 22.4301 287.92 22.6901 288.18C22.9501 288.44 23.2588 288.646 23.5985 288.787C23.9382 288.928 24.3023 289 24.67 289H28.77L29 338.35C28.9987 339.683 29.2603 341.004 29.7699 342.236C30.2796 343.468 31.0272 344.587 31.9699 345.53C32.9127 346.473 34.0322 347.22 35.2642 347.73C36.4963 348.24 37.8167 348.501 39.15 348.5H153.85C155.183 348.501 156.504 348.24 157.736 347.73C158.968 347.22 160.087 346.473 161.03 345.53C161.973 344.587 162.72 343.468 163.23 342.236C163.74 341.004 164.001 339.683 164 338.35L163.77 289H167.77C168.138 289 168.502 288.928 168.842 288.787C169.181 288.646 169.49 288.44 169.75 288.18C170.01 287.92 170.216 287.611 170.357 287.272C170.498 286.932 170.57 286.568 170.57 286.2V281.68C170.579 280.981 170.445 280.287 170.175 279.642C169.905 278.997 169.505 278.414 169 277.93Z" fill="white"/>
<path d="M109.13 308.78H101.45V301.1C101.45 300.543 101.229 300.009 100.835 299.615C100.441 299.221 99.907 299 99.35 299H93.11C92.5531 299 92.0189 299.221 91.6251 299.615C91.2313 300.009 91.01 300.543 91.01 301.1V308.78H83.33C82.7731 308.78 82.2389 309.001 81.8451 309.395C81.4513 309.789 81.23 310.323 81.23 310.88V317.12C81.23 317.677 81.4513 318.211 81.8451 318.605C82.2389 318.999 82.7731 319.22 83.33 319.22H91V326.9C91 327.457 91.2213 327.991 91.6151 328.385C92.0089 328.779 92.5431 329 93.1 329H99.34C99.897 329 100.431 328.779 100.825 328.385C101.219 327.991 101.44 327.457 101.44 326.9V319.22H109.12C109.677 319.22 110.211 318.999 110.605 318.605C110.999 318.211 111.22 317.677 111.22 317.12V310.88C111.22 310.325 111 309.792 110.608 309.399C110.217 309.005 109.685 308.783 109.13 308.78Z" fill="#EB459F"/>
<path d="M164 337H29V339H164V337Z" fill="black"/>
<path d="M163.73 289H28.73V291H163.73V289Z" fill="black"/>
<path d="M134.92 280.75H129.53C128.657 280.75 127.95 281.457 127.95 282.33V297.17C127.95 298.043 128.657 298.75 129.53 298.75H134.92C135.793 298.75 136.5 298.043 136.5 297.17V282.33C136.5 281.457 135.793 280.75 134.92 280.75Z" fill="#8CD9FF"/>
<path d="M134.92 299.67H129.54C129.211 299.671 128.885 299.608 128.58 299.483C128.276 299.358 127.999 299.174 127.766 298.941C127.533 298.709 127.348 298.433 127.221 298.129C127.095 297.825 127.03 297.499 127.03 297.17V282.33C127.03 282.001 127.095 281.675 127.221 281.371C127.348 281.067 127.533 280.791 127.766 280.559C127.999 280.327 128.276 280.143 128.58 280.018C128.885 279.892 129.211 279.829 129.54 279.83H134.92C135.584 279.83 136.221 280.093 136.691 280.562C137.162 281.03 137.427 281.666 137.43 282.33V297.17C137.427 297.834 137.162 298.47 136.691 298.938C136.221 299.407 135.584 299.67 134.92 299.67ZM129.54 281.67C129.365 281.67 129.197 281.74 129.073 281.863C128.95 281.987 128.88 282.155 128.88 282.33V297.17C128.88 297.345 128.95 297.513 129.073 297.637C129.197 297.761 129.365 297.83 129.54 297.83H134.92C135.094 297.828 135.261 297.757 135.384 297.634C135.507 297.511 135.577 297.344 135.58 297.17V282.33C135.577 282.156 135.507 281.989 135.384 281.866C135.261 281.743 135.094 281.673 134.92 281.67H129.54Z" fill="#8CD9FF"/>
<path d="M134.91 295.25H129.55C129.285 295.25 129.03 295.145 128.843 294.957C128.655 294.77 128.55 294.515 128.55 294.25C128.55 293.985 128.655 293.73 128.843 293.543C129.03 293.355 129.285 293.25 129.55 293.25H134.91C135.175 293.25 135.43 293.355 135.617 293.543C135.805 293.73 135.91 293.985 135.91 294.25C135.91 294.515 135.805 294.77 135.617 294.957C135.43 295.145 135.175 295.25 134.91 295.25Z" fill="#45AAF7"/>
<path d="M134.91 286.25H129.55C129.285 286.25 129.03 286.145 128.843 285.957C128.655 285.77 128.55 285.515 128.55 285.25C128.55 284.985 128.655 284.73 128.843 284.543C129.03 284.355 129.285 284.25 129.55 284.25H134.91C135.175 284.25 135.43 284.355 135.617 284.543C135.805 284.73 135.91 284.985 135.91 285.25C135.91 285.515 135.805 285.77 135.617 285.957C135.43 286.145 135.175 286.25 134.91 286.25Z" fill="#45AAF7"/>
<path d="M62.92 280.75H57.53C56.6574 280.75 55.95 281.457 55.95 282.33V297.17C55.95 298.043 56.6574 298.75 57.53 298.75H62.92C63.7926 298.75 64.5 298.043 64.5 297.17V282.33C64.5 281.457 63.7926 280.75 62.92 280.75Z" fill="#8CD9FF"/>
<path d="M62.92 299.67H57.54C57.2109 299.671 56.8847 299.608 56.5802 299.483C56.2758 299.358 55.999 299.174 55.7658 298.941C55.5326 298.709 55.3475 298.433 55.2213 298.129C55.095 297.825 55.03 297.499 55.03 297.17V282.33C55.03 282.001 55.095 281.675 55.2213 281.371C55.3475 281.067 55.5326 280.791 55.7658 280.559C55.999 280.327 56.2758 280.143 56.5802 280.018C56.8847 279.892 57.2109 279.829 57.54 279.83H62.92C63.584 279.83 64.2209 280.093 64.6913 280.562C65.1617 281.03 65.4274 281.666 65.43 282.33V297.17C65.4274 297.834 65.1617 298.47 64.6913 298.938C64.2209 299.407 63.584 299.67 62.92 299.67ZM57.54 281.67C57.365 281.67 57.1971 281.74 57.0733 281.863C56.9495 281.987 56.88 282.155 56.88 282.33V297.17C56.88 297.345 56.9495 297.513 57.0733 297.637C57.1971 297.761 57.365 297.83 57.54 297.83H62.92C63.0942 297.828 63.2606 297.757 63.3838 297.634C63.5071 297.511 63.5774 297.344 63.58 297.17V282.33C63.5774 282.156 63.5071 281.989 63.3838 281.866C63.2606 281.743 63.0942 281.673 62.92 281.67H57.54Z" fill="#8CD9FF"/>
<path d="M62.91 295.25H57.55C57.2848 295.25 57.0304 295.145 56.8429 294.957C56.6553 294.77 56.55 294.515 56.55 294.25C56.55 293.985 56.6553 293.73 56.8429 293.543C57.0304 293.355 57.2848 293.25 57.55 293.25H62.91C63.1752 293.25 63.4296 293.355 63.6171 293.543C63.8046 293.73 63.91 293.985 63.91 294.25C63.91 294.515 63.8046 294.77 63.6171 294.957C63.4296 295.145 63.1752 295.25 62.91 295.25Z" fill="#45AAF7"/>
<path d="M62.91 286.25H57.55C57.2848 286.25 57.0304 286.145 56.8429 285.957C56.6553 285.77 56.55 285.515 56.55 285.25C56.55 284.985 56.6553 284.73 56.8429 284.543C57.0304 284.355 57.2848 284.25 57.55 284.25H62.91C63.1752 284.25 63.4296 284.355 63.6171 284.543C63.8046 284.73 63.91 284.985 63.91 285.25C63.91 285.515 63.8046 285.77 63.6171 285.957C63.4296 286.145 63.1752 286.25 62.91 286.25Z" fill="#45AAF7"/>
<path d="M291.94 349H230.89C223.66 349 217.8 342.76 217.8 335.06H305C305 342.76 299.16 349 291.94 349Z" fill="#FFC619"/>
<path d="M304.52 338.85C304.851 337.614 305.019 336.34 305.02 335.06H217.8C217.801 336.34 217.969 337.614 218.3 338.85H304.52Z" fill="#FFF2A6"/>
<path d="M302.99 315.15H220.51C214.75 315.15 210.08 319.82 210.08 325.58C210.08 331.34 214.75 336.01 220.51 336.01H302.99C308.75 336.01 313.42 331.34 313.42 325.58C313.42 319.82 308.75 315.15 302.99 315.15Z" fill="#FF78B9"/>
<path d="M213.91 277.82L230.91 303.22C231.04 303.424 231.087 303.669 231.043 303.906C230.998 304.144 230.865 304.355 230.67 304.498C230.475 304.64 230.234 304.703 229.994 304.674C229.754 304.645 229.535 304.525 229.38 304.34L210.38 280.44C210.013 279.978 209.844 279.39 209.91 278.804C209.977 278.218 210.274 277.682 210.735 277.315C211.196 276.948 211.785 276.779 212.371 276.845C212.957 276.912 213.493 277.209 213.86 277.67L213.91 277.82Z" fill="black"/>
<path d="M217.27 292.99C221.059 292.99 224.13 289.919 224.13 286.13C224.13 282.341 221.059 279.27 217.27 279.27C213.481 279.27 210.41 282.341 210.41 286.13C210.41 289.919 213.481 292.99 217.27 292.99Z" fill="#86FCC1"/>
<path d="M216.548 284.852C217.944 284.022 218.535 282.441 217.869 281.321C217.203 280.201 215.531 279.966 214.136 280.796C212.74 281.626 212.149 283.207 212.815 284.327C213.481 285.447 215.153 285.682 216.548 284.852Z" fill="#D11583"/>
<path d="M220.86 310.41C220.86 310.41 216.26 315.58 205.28 311.36C192.95 306.62 191.05 323.68 210.34 321.44C223.65 319.88 226.43 318 227.34 323.68C228.25 329.36 237.56 327.48 240.8 318.94C244.04 310.4 247.8 323.68 255.18 325.58C262.56 327.48 262.92 318.94 269.26 318.94C275.6 318.94 284.88 327.48 295.09 321.79C305.3 316.1 304.44 320.45 310.87 321.79C319.97 323.68 327.55 319.89 327.55 314.2C327.55 308.51 321.86 306.62 314.28 312.31C307.5 317.4 304.37 309.78 304.37 309.78L220.86 310.41Z" fill="#86FCC1"/>
<path d="M306.51 312.31C306.747 312.313 306.981 312.255 307.189 312.141C307.397 312.028 307.572 311.863 307.697 311.662C307.823 311.461 307.895 311.231 307.906 310.994C307.917 310.757 307.866 310.522 307.76 310.31C305.76 306.1 304.07 302.79 298.39 299C293.83 296 288.81 296.6 282.86 294.64C276.59 292.57 273.33 287.64 262.16 287.64C250.99 287.64 247.25 291.64 241.5 293.33C235.55 295.06 234.13 293.2 227.28 297.12C220.65 300.91 218.87 305.52 216.55 310.33C216.444 310.542 216.393 310.777 216.404 311.014C216.415 311.251 216.487 311.481 216.613 311.682C216.738 311.883 216.913 312.048 217.121 312.161C217.329 312.275 217.563 312.333 217.8 312.33L306.51 312.31Z" fill="#FFC619"/>
<path d="M235 302C234.45 302 233.911 301.849 233.442 301.563C232.972 301.277 232.59 300.868 232.337 300.38C232.084 299.892 231.97 299.344 232.008 298.795C232.046 298.247 232.233 297.719 232.55 297.27C233.07 296.53 245.55 279.09 261.8 278.01C262.194 277.984 262.589 278.035 262.963 278.162C263.337 278.288 263.683 278.487 263.98 278.747C264.277 279.007 264.52 279.323 264.695 279.677C264.87 280.031 264.974 280.416 265 280.81C265.026 281.204 264.975 281.599 264.848 281.973C264.722 282.347 264.523 282.693 264.263 282.99C264.003 283.287 263.687 283.53 263.333 283.705C262.979 283.88 262.594 283.984 262.2 284.01C248.83 284.9 237.56 300.59 237.45 300.75C237.171 301.139 236.803 301.455 236.377 301.672C235.95 301.89 235.478 302.002 235 302Z" fill="#FFF2A6"/>
<path d="M251 305C250.432 305.002 249.876 304.839 249.4 304.53C248.729 304.106 248.253 303.433 248.077 302.659C247.9 301.885 248.038 301.073 248.46 300.4C248.99 299.56 261.69 279.91 283.15 281C283.946 281.04 284.693 281.394 285.227 281.985C285.762 282.575 286.04 283.354 286 284.15C285.96 284.946 285.606 285.693 285.015 286.227C284.425 286.762 283.646 287.04 282.85 287C264.85 286.08 253.65 303.43 253.53 303.61C253.259 304.036 252.885 304.386 252.443 304.629C252.001 304.872 251.505 305 251 305Z" fill="#FFF2A6"/>
<path d="M275 303C274.396 302.996 273.807 302.811 273.31 302.467C272.814 302.123 272.432 301.637 272.216 301.073C272 300.509 271.959 299.893 272.099 299.306C272.239 298.718 272.553 298.186 273 297.78C273.49 297.34 285.09 287 305 287C305.796 287 306.559 287.316 307.121 287.879C307.684 288.441 308 289.204 308 290C308 290.796 307.684 291.559 307.121 292.121C306.559 292.684 305.796 293 305 293C287.49 293 277.11 302.13 277 302.23C276.451 302.724 275.739 302.998 275 303Z" fill="#FFF2A6"/>
<path d="M271.32 337H295.54C295.54 337 284.13 356.2 271.32 337Z" fill="#FFF2A6"/>
<path d="M260.6 337H278.77C278.77 337 270.21 351.4 260.6 337Z" fill="#FFF2A6"/>
<path d="M370 280C373.866 280 377 276.866 377 273C377 269.134 373.866 266 370 266C366.134 266 363 269.134 363 273C363 276.866 366.134 280 370 280Z" fill="#29CC7A"/>
<path d="M420.94 363.55H387C382.145 363.551 377.446 361.838 373.73 358.714C370.015 355.589 367.522 351.253 366.69 346.47L372.61 345.47C372.963 347.564 373.78 349.552 375 351.29C376.346 353.226 378.14 354.809 380.23 355.902C382.319 356.996 384.642 357.568 387 357.57H420.95C421.417 357.577 421.875 357.44 422.262 357.178C422.649 356.916 422.946 356.541 423.113 356.105C423.28 355.668 423.309 355.191 423.196 354.738C423.082 354.284 422.833 353.877 422.48 353.57C422.071 353.208 421.546 353.006 421 353L409 352.86C404.998 352.838 401.15 351.318 398.214 348.599C395.278 345.879 393.468 342.158 393.14 338.17V338.05L391.04 293.18C390.795 289.853 389.501 286.689 387.345 284.143C385.189 281.597 382.281 279.8 379.04 279.01L371 277L372.45 271.18L380.55 273.18C385.013 274.3 389.008 276.802 391.963 280.33C394.917 283.858 396.68 288.229 397 292.82L399.1 337.7C399.326 340.189 400.469 342.506 402.308 344.199C404.147 345.892 406.55 346.84 409.05 346.86L421 347C423.148 347.084 425.179 347.999 426.665 349.552C428.15 351.105 428.975 353.174 428.965 355.324C428.954 357.473 428.11 359.534 426.609 361.073C425.108 362.611 423.068 363.506 420.92 363.57L420.94 363.55Z" fill="black"/>
<path d="M382.66 312.42V343.42C382.659 343.888 382.563 344.35 382.378 344.78C382.193 345.21 381.923 345.597 381.583 345.919C381.244 346.241 380.842 346.49 380.403 346.652C379.964 346.813 379.497 346.884 379.03 346.86L358.65 345.75C355.648 345.591 352.823 344.281 350.761 342.093C348.7 339.904 347.56 337.006 347.58 334V323.8C347.58 318.02 351.79 317.93 357.5 317.05L363.34 316.15C364.231 316.014 365.044 315.562 365.631 314.878C366.218 314.194 366.541 313.322 366.54 312.42H382.66Z" fill="white"/>
<path d="M382.66 309.24V278.24C382.659 277.772 382.563 277.31 382.378 276.88C382.193 276.45 381.923 276.063 381.583 275.741C381.244 275.419 380.842 275.17 380.403 275.008C379.964 274.847 379.497 274.776 379.03 274.8L358.65 275.91C352.44 276.24 347.58 277.73 347.58 283.91V293C347.579 295.796 348.578 298.499 350.398 300.622C352.217 302.744 354.737 304.145 357.5 304.57L363.34 305.47C364.231 305.606 365.044 306.058 365.631 306.742C366.218 307.426 366.541 308.298 366.54 309.2H382.66" fill="white"/>
<path d="M347.58 281.79V287.21C347.579 290.006 348.578 292.709 350.398 294.832C352.217 296.954 354.737 298.355 357.5 298.78L363.34 299.68C364.231 299.816 365.044 300.268 365.631 300.952C366.218 301.636 366.541 302.508 366.54 303.41C366.541 304.313 366.219 305.186 365.632 305.872C365.045 306.558 364.232 307.011 363.34 307.15L357.5 308.05C354.739 308.475 352.221 309.874 350.401 311.994C348.582 314.115 347.581 316.816 347.58 319.61V325C347.581 327.994 348.728 330.875 350.787 333.049C352.846 335.223 355.66 336.526 358.65 336.69L379.03 337.79C379.497 337.816 379.965 337.746 380.405 337.585C380.844 337.423 381.246 337.174 381.586 336.852C381.926 336.53 382.197 336.142 382.381 335.712C382.566 335.282 382.661 334.818 382.66 334.35V272.44C382.661 271.969 382.565 271.503 382.379 271.071C382.192 270.638 381.919 270.249 381.576 269.926C381.233 269.604 380.827 269.355 380.384 269.196C379.941 269.037 379.47 268.97 379 269L358.62 270.1C355.634 270.266 352.825 271.571 350.771 273.745C348.717 275.92 347.575 278.799 347.58 281.79Z" fill="white"/>
<path d="M349.43 313.32C348.224 315.196 347.582 317.38 347.58 319.61V325C347.581 327.995 348.728 330.875 350.787 333.049C352.846 335.224 355.66 336.526 358.65 336.69L373.65 337.5L349.43 313.32Z" fill="#8CD9FF"/>
<path d="M347.81 279.47C347.657 280.234 347.58 281.011 347.58 281.79V287.21C347.579 290.006 348.578 292.709 350.398 294.832C352.217 296.954 354.737 298.355 357.5 298.78L363.34 299.68C364.231 299.816 365.044 300.268 365.631 300.952C366.218 301.636 366.541 302.508 366.54 303.41C366.541 304.313 366.219 305.186 365.632 305.872C365.045 306.558 364.232 307.011 363.34 307.15L359.08 307.8L382.66 331.38V314.31L347.81 279.47Z" fill="#8CD9FF"/>
<path d="M367.37 269.63L359.27 270.07L382.66 293.46V284.93L367.37 269.63Z" fill="#8CD9FF"/>
<path d="M370 352C373.038 352 375.5 349.538 375.5 346.5C375.5 343.462 373.038 341 370 341C366.962 341 364.5 343.462 364.5 346.5C364.5 349.538 366.962 352 370 352Z" fill="#29CC7A"/>
<path d="M387 363.55C383.674 363.548 380.397 362.743 377.449 361.202C374.502 359.661 371.97 357.43 370.07 354.7C368.795 352.87 367.829 350.843 367.21 348.7C366.985 347.932 367.073 347.106 367.457 346.404C367.84 345.702 368.487 345.18 369.255 344.955C370.023 344.73 370.849 344.818 371.551 345.202C372.253 345.585 372.775 346.232 373 347C373.429 348.517 374.104 349.953 375 351.25C376.346 353.186 378.14 354.769 380.23 355.862C382.319 356.956 384.642 357.528 387 357.53C387.796 357.53 388.559 357.846 389.121 358.409C389.684 358.971 390 359.734 390 360.53C390 361.326 389.684 362.089 389.121 362.651C388.559 363.214 387.796 363.53 387 363.53V363.55Z" fill="black"/>
<path d="M598.76 107.16V21L464.94 35.17C461.81 35.4843 458.903 36.9332 456.768 39.2433C454.633 41.5534 453.417 44.565 453.35 47.71V80.45C453.415 83.5967 454.63 86.6107 456.765 88.9229C458.9 91.2351 461.808 92.6854 464.94 93L598.76 107.16Z" fill="#FFC619"/>
<path d="M456.72 88.2901V39.8701C456.72 38.0365 455.234 36.55 453.4 36.55H435.32C433.486 36.55 432 38.0365 432 39.8701V88.2901C432 90.1237 433.486 91.6101 435.32 91.6101H453.4C455.234 91.6101 456.72 90.1237 456.72 88.2901Z" fill="white"/>
<path d="M441.91 36.55V51.3601L440.41 52.8601C439.347 53.9208 438.747 55.3586 438.74 56.8601V71.2601C438.747 72.7615 439.347 74.1993 440.41 75.2601L441.91 76.7601V91.6101H444.16V36.55H441.91Z" fill="black"/>
<path d="M607.3 21H598.76V107.16H607.3V21Z" fill="#FFE75C"/>
<path d="M607.3 26.74H598.76V28.99H607.3V26.74Z" fill="#FFC619"/>
<path d="M607.3 35.73H598.76V37.98H607.3V35.73Z" fill="#FFC619"/>
<path d="M607.3 40.22H598.76V42.47H607.3V40.22Z" fill="#FFC619"/>
<path d="M607.3 94.1599H598.76V96.4099H607.3V94.1599Z" fill="#FFC619"/>
<path d="M607.3 77.3H598.76V79.55H607.3V77.3Z" fill="#FFC619"/>
<path d="M607.3 58.2H598.76V60.45H607.3V58.2Z" fill="#FFC619"/>
<path d="M607.3 98.6599H598.76V100.91H607.3V98.6599Z" fill="#FFC619"/>
<path d="M565.11 63.0999L555.55 57.7099L558.49 47.1299C558.543 46.9373 558.544 46.734 558.493 46.5408C558.442 46.3476 558.341 46.1714 558.2 46.0301C558.058 45.8888 557.882 45.7875 557.689 45.7365C557.496 45.6856 557.293 45.6867 557.1 45.7399L546.53 48.6899L541.14 39.1299C541.044 38.9477 540.9 38.7952 540.724 38.6888C540.548 38.5824 540.346 38.5261 540.14 38.5261C539.934 38.5261 539.732 38.5824 539.556 38.6888C539.38 38.7952 539.236 38.9477 539.14 39.1299L533.74 48.6899L523.17 45.7399C522.977 45.6867 522.774 45.6856 522.581 45.7365C522.388 45.7875 522.211 45.8888 522.07 46.0301C521.929 46.1714 521.828 46.3476 521.777 46.5408C521.726 46.734 521.727 46.9373 521.78 47.1299L524.73 57.7099L515.17 63.0999C514.985 63.1933 514.829 63.3362 514.721 63.5128C514.612 63.6893 514.554 63.8926 514.554 64.0999C514.554 64.3072 514.612 64.5105 514.721 64.6871C514.829 64.8636 514.985 65.0065 515.17 65.0999L524.73 70.4999L521.82 80.9999C521.767 81.1925 521.766 81.3958 521.817 81.589C521.868 81.7822 521.969 81.9584 522.11 82.0997C522.252 82.241 522.428 82.3423 522.621 82.3933C522.814 82.4443 523.017 82.4431 523.21 82.3899L533.78 79.3899L539.18 88.9499C539.276 89.1321 539.42 89.2846 539.596 89.391C539.772 89.4975 539.974 89.5537 540.18 89.5537C540.386 89.5537 540.588 89.4975 540.764 89.391C540.94 89.2846 541.084 89.1321 541.18 88.9499L546.57 79.3899L557.14 82.3899C557.33 82.4344 557.528 82.429 557.715 82.3742C557.903 82.3193 558.072 82.2169 558.208 82.077C558.344 81.937 558.442 81.7643 558.491 81.5755C558.54 81.3868 558.54 81.1885 558.49 80.9999L555.55 70.4299L565.11 65.0299C565.276 64.9291 565.412 64.7873 565.507 64.6183C565.602 64.4493 565.652 64.2587 565.652 64.0649C565.652 63.8711 565.602 63.6805 565.507 63.5115C565.412 63.3425 565.276 63.2008 565.11 63.0999ZM535 76.4799L527.74 69.2199V58.9399L535 51.6799H545.27L552.54 58.9399V69.2199L545.27 76.4799H535Z" fill="#FFF2A6"/>
<path d="M540.16 77.2799C547.45 77.2799 553.36 71.37 553.36 64.0799C553.36 56.7897 547.45 50.8799 540.16 50.8799C532.87 50.8799 526.96 56.7897 526.96 64.0799C526.96 71.37 532.87 77.2799 540.16 77.2799Z" fill="#FFA8D2"/>
<path d="M492.43 70C491.634 70 490.871 69.6839 490.309 69.1213C489.746 68.5587 489.43 67.7956 489.43 67V44.47C489.43 43.6743 489.746 42.9113 490.309 42.3486C490.871 41.786 491.634 41.47 492.43 41.47C493.226 41.47 493.989 41.786 494.551 42.3486C495.114 42.9113 495.43 43.6743 495.43 44.47V67C495.43 67.7956 495.114 68.5587 494.551 69.1213C493.989 69.6839 493.226 70 492.43 70Z" fill="#FF8C19"/>
<path d="M492.43 86.1699C491.634 86.1699 490.871 85.8539 490.309 85.2912C489.746 84.7286 489.43 83.9656 489.43 83.1699V76.1699C489.43 75.3743 489.746 74.6112 490.309 74.0486C490.871 73.486 491.634 73.1699 492.43 73.1699C493.226 73.1699 493.989 73.486 494.551 74.0486C495.114 74.6112 495.43 75.3743 495.43 76.1699V83.1699C495.43 83.9656 495.114 84.7286 494.551 85.2912C493.989 85.8539 493.226 86.1699 492.43 86.1699Z" fill="#FF8C19"/>
<path d="M482 81.6701C481.204 81.6701 480.441 81.354 479.879 80.7914C479.316 80.2288 479 79.4657 479 78.6701V51.0901C479 50.2944 479.316 49.5314 479.879 48.9688C480.441 48.4062 481.204 48.0901 482 48.0901C482.796 48.0901 483.559 48.4062 484.121 48.9688C484.684 49.5314 485 50.2944 485 51.0901V78.6701C485 79.4657 484.684 80.2288 484.121 80.7914C483.559 81.354 482.796 81.6701 482 81.6701Z" fill="#FF8C19"/>
<path d="M100.23 38.5C88.6321 38.5 77.5092 43.1072 69.3082 51.3082C61.1073 59.5091 56.5 70.632 56.5 82.23V161.36C56.5214 162.911 56.1122 164.439 55.3178 165.771C54.5233 167.104 53.3749 168.191 52 168.91C50.5555 169.659 48.9183 169.954 47.3032 169.756C45.6882 169.557 44.1707 168.876 42.95 167.8C41.4837 166.492 40.521 164.712 40.2288 162.769C39.9366 160.826 40.3332 158.841 41.35 157.16C49.0825 143.887 53.1576 128.801 53.16 113.44V59.07C53.1616 51.6261 55.5405 44.3772 59.95 38.38L60.7 37.38C63.2229 34.137 66.1234 31.2064 69.34 28.65C69.6606 28.3969 69.9179 28.0727 70.0915 27.703C70.2651 27.3333 70.3502 26.9283 70.34 26.52C70.33 24.22 68 23 62 22.05C56.5328 21.3 51.0182 20.949 45.5 21C39.9985 20.9515 34.5007 21.3024 29.05 22.05C23.05 22.97 20.67 24.22 20.67 26.5C20.6598 26.9083 20.7449 27.3133 20.9185 27.683C21.0921 28.0527 21.3494 28.3769 21.67 28.63C24.8866 31.1864 27.7871 34.117 30.31 37.36L31.31 38.72C35.7166 44.7181 38.092 51.9671 38.09 59.41V114.58C38.09 127.07 34.34 139.14 28.09 149.96C25.5932 154.242 24.5336 159.211 25.0664 164.14C25.5993 169.068 27.6965 173.696 31.0509 177.345C34.4053 180.995 38.8404 183.474 43.7062 184.42C48.5721 185.365 53.6129 184.728 58.09 182.6C62.1376 180.651 65.5475 177.591 67.9219 173.777C70.2963 169.963 71.5372 165.552 71.5 161.06V82.23C71.5 74.6103 74.5269 67.3027 79.9148 61.9148C85.3027 56.5269 92.6103 53.5 100.23 53.5H125V38.5H100.23Z" fill="#8CD9FF"/>
<path d="M100.23 49H99.15C90.7132 49.0132 82.6258 52.3713 76.6609 58.338C70.6961 64.3047 67.3406 72.3931 67.33 80.83V160.76C67.3221 165.981 65.2437 170.987 61.5506 174.678C57.8576 178.369 52.8514 180.445 47.63 180.45C43.0758 180.454 38.6096 179.196 34.7264 176.817C30.8432 174.437 27.6947 171.029 25.63 166.97C26.3627 170.058 27.7244 172.962 29.63 175.5C34.5231 179.978 40.9174 182.458 47.55 182.45C53.3018 182.445 58.8167 180.158 62.8848 176.092C66.9529 172.026 69.2421 166.512 69.25 160.76V80.83C69.2539 76.9079 70.0305 73.025 71.5354 69.403C73.0403 65.7811 75.2439 62.4911 78.0205 59.721C80.7971 56.9509 84.0923 54.755 87.7177 53.2586C91.3432 51.7622 95.2279 50.9947 99.15 51H100.23C100.495 51 100.75 50.8946 100.937 50.7071C101.125 50.5196 101.23 50.2652 101.23 50C101.23 49.7348 101.125 49.4804 100.937 49.2929C100.75 49.1054 100.495 49 100.23 49Z" fill="#45AAF7"/>
<path d="M123.12 41.89C125.051 38.2452 127.952 35.2055 131.503 33.1071C135.054 31.0087 139.116 29.9334 143.24 30C143.61 30 142.97 30 143.32 30C148.123 30.2622 152.641 32.3653 155.933 35.8721C159.226 39.379 161.041 44.0198 161 48.83V72.44C160.998 76.3075 161.858 80.1267 163.519 83.6195C165.18 87.1122 167.599 90.1905 170.6 92.63C170.752 92.7552 170.876 92.9106 170.965 93.0863C171.053 93.2621 171.104 93.4543 171.114 93.6508C171.125 93.8473 171.094 94.0438 171.025 94.2279C170.955 94.412 170.848 94.5795 170.71 94.72C170.515 94.9178 170.266 95.0543 169.994 95.1129C169.722 95.1715 169.439 95.1497 169.18 95.05C165.034 93.3656 161.393 90.6396 158.61 87.1359C155.826 83.6322 153.994 79.4693 153.29 75.05C148.12 34.05 131.44 45.41 128.29 47.13L127.09 47.8L123.12 41.89Z" fill="black"/>
<path d="M124.42 59.5V24.7C124.417 23.7178 124.025 22.7767 123.33 22.0831C122.634 21.3895 121.692 21 120.71 21H107.12C106.139 21 105.198 21.3898 104.504 22.0837C103.81 22.7776 103.42 23.7187 103.42 24.7V59.5C103.412 60.6483 103.051 61.7663 102.385 62.7021C101.72 63.6378 100.782 64.3459 99.7 64.73C94.1942 66.7398 89.4395 70.3937 86.0802 75.1965C82.7209 79.9994 80.9194 85.7189 80.92 91.58V213.58C80.9279 215.551 81.7163 217.438 83.1126 218.829C84.5089 220.219 86.3993 221 88.37 221H139.47C141.445 220.997 143.338 220.212 144.735 218.815C146.132 217.418 146.917 215.525 146.92 213.55V91.55C146.918 85.6896 145.115 79.9713 141.756 75.169C138.397 70.3667 133.644 66.7122 128.14 64.7C127.062 64.3189 126.127 63.6157 125.461 62.6856C124.796 61.7555 124.432 60.6435 124.42 59.5Z" fill="#FF78B9"/>
<path d="M146.92 96.75V88.75C143.425 88.75 139.97 89.4978 136.788 90.9431C133.606 92.3885 130.77 94.498 128.47 97.13C126.875 99.0126 124.897 100.533 122.667 101.588C120.437 102.644 118.007 103.21 115.54 103.25H80.92V111.25V148.25V156.25H115.54C118.007 156.29 120.437 156.856 122.667 157.912C124.897 158.967 126.875 160.487 128.47 162.37C130.77 165.002 133.606 167.111 136.788 168.557C139.97 170.002 143.425 170.75 146.92 170.75V162.75V96.75Z" fill="white"/>
<path d="M102.6 134.63H91.82C88.8376 134.63 86.42 137.048 86.42 140.03V144.07C86.42 147.052 88.8376 149.47 91.82 149.47H102.6C105.582 149.47 108 147.052 108 144.07V140.03C108 137.048 105.582 134.63 102.6 134.63Z" fill="#FFC619"/>
<path d="M95.66 37.7299V54.2699C95.6595 54.6515 95.739 55.0289 95.8934 55.3779C96.0478 55.7268 96.2736 56.0395 96.5563 56.2958C96.839 56.5521 97.1722 56.7463 97.5346 56.8658C97.8969 56.9854 98.2803 57.0277 98.66 56.9899L121.38 55.0999V36.8999L98.62 34.9999C98.2426 34.968 97.8627 35.015 97.5045 35.1378C97.1463 35.2607 96.8175 35.4567 96.5391 35.7134C96.2607 35.9702 96.0388 36.2821 95.8875 36.6292C95.7361 36.9764 95.6586 37.3512 95.66 37.7299Z" fill="black"/>
<path d="M113.92 59C121.1 59 126.92 53.1797 126.92 46C126.92 38.8203 121.1 33 113.92 33C106.74 33 100.92 38.8203 100.92 46C100.92 53.1797 106.74 59 113.92 59Z" fill="white"/>
<path d="M113.92 61C110.953 61 108.053 60.1203 105.586 58.4721C103.12 56.8238 101.197 54.4811 100.062 51.7403C98.9265 48.9994 98.6294 45.9834 99.2082 43.0737C99.787 40.1639 101.216 37.4912 103.313 35.3934C105.411 33.2956 108.084 31.867 110.994 31.2882C113.903 30.7094 116.919 31.0065 119.66 32.1418C122.401 33.2771 124.744 35.1997 126.392 37.6665C128.04 40.1332 128.92 43.0333 128.92 46C128.92 49.9783 127.34 53.7936 124.527 56.6066C121.714 59.4197 117.898 61 113.92 61ZM113.92 35C111.744 35 109.618 35.6451 107.809 36.8538C106 38.0625 104.59 39.7805 103.757 41.7905C102.925 43.8005 102.707 46.0122 103.131 48.146C103.556 50.2798 104.603 52.2398 106.142 53.7782C107.68 55.3166 109.64 56.3642 111.774 56.7886C113.908 57.2131 116.12 56.9952 118.13 56.1627C120.139 55.3301 121.857 53.9202 123.066 52.1113C124.275 50.3023 124.92 48.1756 124.92 46C124.92 43.0826 123.761 40.2847 121.698 38.2218C119.635 36.1589 116.837 35 113.92 35Z" fill="black"/>
<path d="M111.93 46L112.93 39.34C112.948 39.2091 112.993 39.083 113.06 38.9692C113.127 38.8554 113.217 38.7561 113.323 38.6771C113.429 38.598 113.549 38.5408 113.678 38.5087C113.806 38.4766 113.939 38.4702 114.07 38.49C114.286 38.5184 114.488 38.6168 114.643 38.7703C114.798 38.9238 114.899 39.1239 114.93 39.34L115.93 46C115.969 46.2627 115.955 46.5304 115.891 46.7878C115.826 47.0453 115.711 47.2875 115.553 47.5006C115.394 47.7138 115.196 47.8936 114.968 48.0299C114.74 48.1662 114.488 48.2563 114.225 48.295C113.962 48.3338 113.695 48.3204 113.437 48.2557C113.18 48.191 112.937 48.0762 112.724 47.9178C112.511 47.7595 112.331 47.5608 112.195 47.3329C112.059 47.1051 111.969 46.8527 111.93 46.59C111.905 46.3942 111.905 46.1959 111.93 46Z" fill="black"/>
<path d="M45.5 30.74C56.8329 30.74 66.02 29.0073 66.02 26.87C66.02 24.7327 56.8329 23 45.5 23C34.1671 23 24.98 24.7327 24.98 26.87C24.98 29.0073 34.1671 30.74 45.5 30.74Z" fill="black"/>
<path d="M386.36 27H208.48C205.26 27 202.65 29.6102 202.65 32.83V97.17C202.65 100.39 205.26 103 208.48 103H386.36C389.58 103 392.19 100.39 392.19 97.17V32.83C392.19 29.6102 389.58 27 386.36 27Z" fill="#45AAF7"/>
<path d="M386.36 21H208.48C205.26 21 202.65 23.6102 202.65 26.83V91.17C202.65 94.3898 205.26 97 208.48 97H386.36C389.58 97 392.19 94.3898 392.19 91.17V26.83C392.19 23.6102 389.58 21 386.36 21Z" fill="white"/>
<path d="M384 30H210V81H384V30Z" fill="#8CD9FF"/>
<path d="M329 64H251V82H329V64Z" fill="#86FCC1"/>
<path d="M229 31H211V47H229V31Z" fill="#86FCC1"/>
<path d="M384 64H329V82H384V64Z" fill="#FF78B9"/>
<path d="M208.9 29V82.29H385V29H208.9ZM383 46.1H330.47V31H383V46.1ZM252 46.1V31H328.47V46.1H252ZM250 46.1H229.8V31H250V46.1ZM239 48.1V63.19H210.9V48.1H239ZM241 48.1H312V63.19H241V48.1ZM328.47 65.19V80.29H252V65.19H328.47ZM314 63.19V48.1H345V63.19H314ZM347 48.1H383V63.19H347V48.1ZM227.8 31V46.1H210.9V31H227.8ZM210.9 65.19H250V80.29H210.9V65.19ZM330.47 80.29V65.19H383V80.29H330.47Z" fill="white"/>
<path d="M380.22 82.5H213.78C212.38 82.4974 211.039 81.9402 210.049 80.9506C209.06 79.961 208.503 78.6195 208.5 77.22V33.78C208.503 32.3805 209.06 31.039 210.049 30.0494C211.039 29.0598 212.38 28.5026 213.78 28.5H380.22C381.62 28.5026 382.961 29.0598 383.951 30.0494C384.94 31.039 385.497 32.3805 385.5 33.78V77.22C385.497 78.6195 384.94 79.961 383.951 80.9506C382.961 81.9402 381.62 82.4974 380.22 82.5ZM213.78 31.5C213.175 31.5 212.595 31.7402 212.168 32.1678C211.74 32.5954 211.5 33.1753 211.5 33.78V77.22C211.5 77.8247 211.74 78.4046 212.168 78.8322C212.595 79.2598 213.175 79.5 213.78 79.5H380.22C380.825 79.5 381.405 79.2598 381.832 78.8322C382.26 78.4046 382.5 77.8247 382.5 77.22V33.78C382.5 33.1753 382.26 32.5954 381.832 32.1678C381.405 31.7402 380.825 31.5 380.22 31.5H213.78Z" fill="white"/>
<path d="M488.92 325.73C454 301.46 433.19 262 433.19 220.28V184L437.33 183.13C458.92 178.59 469.94 168.55 473.09 150.56L473.84 146.25H560.67L561.43 150.56C564.57 168.56 575.6 178.56 597.19 183.13L601.33 184V220.24C601.33 262 580.49 301.42 545.6 325.69L517.26 344.18L488.92 325.73Z" fill="#8CD9FF"/>
<path d="M561.07 207.63C559.634 206.705 558.413 205.485 557.487 204.05C556.561 202.615 555.952 200.999 555.7 199.31L554.83 193.5C554.809 193.361 554.738 193.235 554.632 193.143C554.526 193.052 554.39 193.001 554.25 193C554.109 192.999 553.973 193.049 553.866 193.141C553.759 193.233 553.689 193.36 553.67 193.5L552.8 199.31C552.548 200.999 551.939 202.615 551.013 204.05C550.087 205.485 548.866 206.705 547.43 207.63L546.67 208.11C546.591 208.165 546.526 208.239 546.481 208.324C546.436 208.409 546.411 208.504 546.41 208.6C546.41 208.697 546.433 208.792 546.479 208.877C546.524 208.963 546.59 209.036 546.67 209.09L547.43 209.58C548.864 210.504 550.085 211.723 551.011 213.156C551.937 214.589 552.547 216.203 552.8 217.89L553.67 223.71C553.692 223.848 553.762 223.973 553.869 224.063C553.975 224.153 554.111 224.202 554.25 224.2C554.389 224.2 554.523 224.15 554.629 224.061C554.735 223.971 554.806 223.847 554.83 223.71L555.7 217.89C555.953 216.203 556.563 214.589 557.489 213.156C558.415 211.723 559.636 210.504 561.07 209.58L561.82 209.09C561.903 209.038 561.971 208.965 562.018 208.88C562.065 208.794 562.09 208.698 562.09 208.6C562.089 208.502 562.064 208.407 562.017 208.321C561.97 208.235 561.902 208.163 561.82 208.11L561.07 207.63Z" fill="white"/>
<path d="M570.46 230.64C569.707 230.151 569.066 229.507 568.58 228.752C568.094 227.997 567.774 227.148 567.64 226.26L567.18 223.26C567.172 223.184 567.136 223.114 567.078 223.064C567.021 223.013 566.946 222.987 566.87 222.99C566.795 222.99 566.723 223.017 566.668 223.067C566.612 223.117 566.577 223.186 566.57 223.26L566.11 226.26C565.976 227.148 565.656 227.997 565.17 228.752C564.684 229.507 564.043 230.151 563.29 230.64L562.89 230.89C562.847 230.918 562.811 230.957 562.787 231.002C562.763 231.048 562.75 231.098 562.75 231.15C562.749 231.202 562.761 231.253 562.786 231.298C562.81 231.344 562.846 231.382 562.89 231.41L563.29 231.67C564.044 232.156 564.685 232.797 565.171 233.551C565.657 234.304 565.977 235.153 566.11 236.04L566.57 239.1C566.58 239.172 566.616 239.239 566.671 239.287C566.726 239.335 566.797 239.361 566.87 239.36C566.945 239.363 567.018 239.338 567.075 239.29C567.133 239.242 567.17 239.174 567.18 239.1L567.64 236.04C567.773 235.153 568.093 234.304 568.579 233.551C569.065 232.797 569.706 232.156 570.46 231.67L570.86 231.41C570.904 231.382 570.94 231.344 570.964 231.298C570.989 231.253 571.001 231.202 571 231.15C571 231.098 570.987 231.048 570.963 231.002C570.939 230.957 570.903 230.918 570.86 230.89L570.46 230.64Z" fill="white"/>
<path d="M535 220.24C531.636 218.704 528.086 217.615 524.44 217C523.938 217.887 523.488 218.802 523.09 219.74C519.225 219.16 515.295 219.16 511.43 219.74C511.06 218.88 510.52 217.8 510.07 217C506.43 217.617 502.886 218.71 499.53 220.25C493.601 228.664 490.926 238.943 492 249.18C495.901 252.063 500.267 254.255 504.91 255.66C505.953 254.253 506.876 252.761 507.67 251.2C506.161 250.642 504.705 249.95 503.32 249.13C503.68 248.86 504.04 248.59 504.39 248.3C508.426 250.197 512.831 251.18 517.29 251.18C521.749 251.18 526.154 250.197 530.19 248.3C530.54 248.59 530.89 248.86 531.26 249.13C529.869 249.947 528.41 250.643 526.9 251.21C527.692 252.769 528.616 254.258 529.66 255.66C534.307 254.259 538.678 252.067 542.58 249.18C543.644 238.933 540.951 228.649 535 220.24ZM508.83 243.35C507.57 243.213 506.405 242.616 505.559 241.673C504.713 240.73 504.245 239.507 504.245 238.24C504.245 236.973 504.713 235.75 505.559 234.807C506.405 233.864 507.57 233.267 508.83 233.13C510.09 233.267 511.255 233.864 512.101 234.807C512.947 235.75 513.415 236.973 513.415 238.24C513.415 239.507 512.947 240.73 512.101 241.673C511.255 242.616 510.09 243.213 508.83 243.35ZM525.77 243.35C524.735 243.461 523.691 243.256 522.776 242.761C521.861 242.267 521.117 241.506 520.643 240.579C520.17 239.653 519.988 238.604 520.123 237.573C520.258 236.541 520.703 235.574 521.399 234.801C522.096 234.028 523.01 233.484 524.022 233.241C525.034 232.999 526.095 233.069 527.066 233.443C528.037 233.816 528.872 234.476 529.46 235.334C530.048 236.193 530.362 237.209 530.36 238.25C530.417 239.539 529.963 240.798 529.095 241.754C528.228 242.709 527.018 243.283 525.73 243.35H525.77Z" fill="black"/>
<path d="M585.78 194.45C574.17 191.97 554.09 184.3 550.06 160.83L549.92 160H484.6L484.45 160.83C480.45 184.3 460.34 191.97 448.73 194.45L447.94 194.62V221.62C447.982 239.278 452.251 256.67 460.392 272.34C468.532 288.01 480.306 301.503 494.73 311.69L517.26 326.69L539.81 311.69C554.219 301.507 565.982 288.024 574.117 272.367C582.251 256.71 586.521 239.334 586.57 221.69V194.69L585.78 194.45ZM546.54 162C546.295 163.944 545.345 165.731 543.871 167.021C542.396 168.311 540.499 169.015 538.54 169H496.07C494.111 169.015 492.214 168.311 490.739 167.021C489.265 165.731 488.315 163.944 488.07 162H546.54ZM584.54 221.66C584.5 238.989 580.314 256.057 572.33 271.437C564.347 286.818 552.799 300.064 538.65 310.07L517.26 324.3L495.86 310.08C481.705 300.076 470.151 286.829 462.162 271.447C454.173 256.064 449.982 238.993 449.94 221.66V196.23C469.83 191.74 482.61 179.85 486.13 162.61C486.523 164.961 487.738 167.095 489.559 168.634C491.379 170.172 493.687 171.014 496.07 171.01H538.55C540.887 171.013 543.153 170.203 544.958 168.717C546.763 167.232 547.994 165.164 548.44 162.87C552.05 179.96 564.79 191.77 584.57 196.23L584.54 221.66Z" fill="#45AAF7"/>
<path d="M598.36 177.58C578.88 173.49 569.81 165.38 567.05 149.58L565.47 140.58H469L467.42 149.58C464.67 165.34 455.6 173.45 436.11 177.58L427.44 179.4V220.28C427.44 263.91 449.19 305.08 485.62 330.41L511.25 347.14L517.25 351.04L548.58 330.59L548.85 330.41C585.29 305.08 607 263.91 607 220.28V179.4L598.36 177.58ZM595.62 188.67V220.28C595.62 260.17 575.7 297.84 542.35 321.03L517.26 337.4L492.18 321C458.82 297.8 438.9 260.13 438.9 220.24V188.67C462.36 183.67 475 171.97 478.64 152H555.88C559.51 172 572.16 183.64 595.62 188.67Z" fill="#45AAF7"/>
<path d="M378.22 199.79V172.06L278.09 174.57V197.28L378.22 199.79Z" fill="#FFC619"/>
<path d="M386.78 170.82V201C386.78 201.395 386.695 201.785 386.53 202.144C386.366 202.503 386.126 202.823 385.827 203.081C385.528 203.339 385.177 203.529 384.798 203.64C384.419 203.75 384.021 203.777 383.63 203.72L377.63 202.85C376.974 202.754 376.375 202.425 375.942 201.924C375.509 201.423 375.27 200.783 375.27 200.12V171.91C375.271 171.266 375.498 170.642 375.91 170.147C376.323 169.652 376.896 169.317 377.53 169.2L383.53 168.11C383.927 168.037 384.336 168.052 384.727 168.154C385.117 168.256 385.481 168.443 385.791 168.702C386.101 168.961 386.351 169.285 386.522 169.651C386.693 170.017 386.781 170.416 386.78 170.82Z" fill="#FF8C19"/>
<path d="M269.36 204.48V167.37L276.36 165.97C276.786 165.886 277.225 165.897 277.646 166.003C278.067 166.109 278.459 166.306 278.795 166.581C279.13 166.857 279.401 167.203 279.587 167.595C279.773 167.988 279.869 168.416 279.87 168.85V203C279.869 203.434 279.773 203.863 279.587 204.255C279.401 204.647 279.13 204.993 278.795 205.269C278.459 205.544 278.067 205.742 277.646 205.847C277.225 205.953 276.786 205.964 276.36 205.88L269.36 204.48Z" fill="#FF8C19"/>
<path d="M269.49 239.79V132.06L262.28 124.85H211.21L204 132.06V239.79L211.21 247H262.28L269.49 239.79Z" fill="#8CD9FF"/>
<path d="M390.8 222.05C386.05 219.161 382.124 215.098 379.401 210.252C376.677 205.405 375.248 199.939 375.25 194.38V171.91L371.17 172.23V233.09C371.171 235.402 371.793 237.671 372.97 239.661C374.147 241.651 375.836 243.288 377.862 244.403C379.888 245.517 382.175 246.068 384.486 245.997C386.797 245.926 389.046 245.236 391 244C392.856 242.824 394.381 241.193 395.432 239.263C396.482 237.333 397.023 235.167 397.003 232.969C396.983 230.772 396.403 228.616 395.318 226.705C394.232 224.795 392.677 223.192 390.8 222.05ZM390.8 234.26C390.05 237.05 387.72 239.49 383.07 239.49C381.023 239.49 379.059 238.677 377.611 237.229C376.163 235.781 375.35 233.817 375.35 231.77V210.45C377.792 216.708 382.043 222.097 387.56 225.93C388.881 226.824 389.897 228.103 390.469 229.592C391.041 231.082 391.143 232.711 390.76 234.26H390.8Z" fill="black"/>
<path d="M261.23 180.92V247H262.23L263.28 245.95V180.53L269.44 177.91V175.4L263.28 170.14V125.9L262.23 124.85H261.23V169.57H212.05V124.85H211.21L210 126.11V170.32L204 175.4V177.92L210.16 180.56V246L211.21 247.05H212.21V180.92H261.23ZM211.43 178.82L206 176.48L211.64 171.67H261.93L267.56 176.47L262 178.82H211.43Z" fill="#45AAF7"/>
<path d="M353.21 172.68L349.33 199.06L351.34 199.12L355.24 172.63L353.21 172.68Z" fill="#FF8C19"/>
<path d="M342.95 172.94L341 198.86L343.01 198.91L344.96 172.89L342.95 172.94Z" fill="#FF8C19"/>
<path d="M360.57 172.5L362.64 199.4L364.65 199.45L362.58 172.45L360.57 172.5Z" fill="#FF8C19"/>
</svg>
